<svg width="576" height="727" viewBox="0 0 576 727" fill="none" xmlns="http://www.w3.org/2000/svg">
<path d="M431.184 95.5436C464.132 174.653 426.71 265.49 347.605 298.424C268.501 331.357 177.659 293.95 144.725 214.845C111.783 135.736 149.205 44.8983 228.309 11.965C307.413 -20.9777 398.243 16.439 431.189 95.5436" fill="black"/>
<path d="M287.917 363.2C237.355 363.2 187.683 376.517 143.891 401.809C100.109 427.106 63.7548 463.481 38.4948 507.288C13.2401 551.09 -0.0412372 600.772 9.6182e-05 651.341C9.6182e-05 671.377 7.95851 690.601 22.1308 704.768C36.3028 718.94 55.5214 726.904 75.5628 726.904H500.269C520.311 726.904 539.529 718.94 553.701 704.768C567.868 690.601 575.832 671.377 575.832 651.341C575.874 600.773 562.592 551.09 537.332 507.288C512.072 463.481 475.723 427.105 431.941 401.809C388.155 376.517 338.483 363.2 287.915 363.2H287.917Z" fill="black"/>
</svg>
